<?xml version="1.0" encoding="UTF-8"?>
<svg id="Capa_1" data-name="Capa 1" xmlns="http://www.w3.org/2000/svg" viewBox="0 0 33.26 33.26">
  <defs>
    <style>
      .cls-1 {
        fill: #fff;
      }

      .cls-2 {
        fill: #6a6a69;
      }
    </style>
  </defs>
  <rect class="cls-1" width="33.26" height="33.26" rx="8.93" ry="8.93"/>
  <path class="cls-2" d="M20,11.41c.91,.48,1.67,1.21,2.18,2.1,.55,.95,.83,2.03,.82,3.12,.02,1.09-.24,2.16-.77,3.11-.52,.91-1.3,1.64-2.23,2.11-1.02,.51-2.15,.77-3.29,.75h-4.44V10.66h4.47c1.13-.02,2.25,.24,3.26,.75Zm-.92,7.77c.64-.69,.98-1.61,.92-2.55,.05-.95-.28-1.87-.92-2.57-.7-.64-1.63-.97-2.57-.91h-1.34v6.93h1.38c.94,.06,1.87-.27,2.57-.9h-.04Z"/>
</svg>