<svg id="Capa_1" data-name="Capa 1" xmlns="http://www.w3.org/2000/svg" viewBox="0 0 35.26 35.26"><defs><style>.cls-1{fill:#fff;}.cls-2{fill:#6a6a69;}</style></defs><rect class="cls-1" x="1" y="1" width="33.26" height="33.26" rx="8.93"/><path class="cls-2" d="M21,12.41a5.38,5.38,0,0,1,2.18,2.1A6.12,6.12,0,0,1,24,17.63a6.13,6.13,0,0,1-.77,3.11A5.36,5.36,0,0,1,21,22.85a7,7,0,0,1-3.29.75H13.27V11.66h4.47A6.93,6.93,0,0,1,21,12.41Zm-.92,7.77A3.42,3.42,0,0,0,21,17.63a3.5,3.5,0,0,0-.92-2.57,3.48,3.48,0,0,0-2.57-.91H16.17v6.93h1.38A3.51,3.51,0,0,0,20.12,20.18Z"/></svg>