<?xml version="1.0" encoding="UTF-8"?>
<svg id="Capa_1" data-name="Capa 1" xmlns="http://www.w3.org/2000/svg" viewBox="0 0 81.45 124.05">
  <defs>
    <style>
      .cls-1 {
        fill: #fff;
      }

      .cls-2 {
        fill: #6a6a69;
      }
    </style>
  </defs>
  <path class="cls-2" d="M81.45,42.55v56.16c0,13.99-11.35,25.34-25.34,25.34h-12.52c-13.99,0-25.33-11.35-25.33-25.34V58.63h31.59V17.22h6.26c13.99,0,25.33,11.33,25.34,25.32h0Z"/>
  <path class="cls-1" d="M19.26,57.63v-15.08c.02-13.43,10.9-24.31,24.33-24.33h5.26V57.63H19.26Z"/>
  <path class="cls-2" d="M47.85,19.22V56.63H20.26v-14.08c.02-12.88,10.45-23.31,23.33-23.33h4.26m2-2h-6.26c-13.99,0-25.33,11.34-25.33,25.33h0v16.08h31.59V17.22Z"/>
  <path class="cls-2" d="M20.79,21.29c-.26,0-.51-.11-.7-.29L.8,1.71c-.39-.39-.39-1.02,0-1.41,0,0,0,0,0,0C1.19-.1,1.82-.1,2.21,.29L21.5,19.58c.39,.39,.39,1.02,0,1.41-.19,.19-.45,.3-.72,.3Z"/>
  <path class="cls-2" d="M28.1,17.07c-.55,0-1-.45-1-1V1.49c0-.55,.45-1,1-1s1,.45,1,1v14.58c0,.55-.45,1-1,1Z"/>
  <path class="cls-2" d="M15.58,29.07H1c-.55,0-1-.45-1-1s.45-1,1-1H15.58c.55,0,1,.45,1,1s-.45,1-1,1Z"/>
</svg>