<svg id="Capa_1" data-name="Capa 1" xmlns="http://www.w3.org/2000/svg" viewBox="0 0 81.45 124.05"><defs><style>.cls-1{fill:#6a6a69;}.cls-2{fill:#fff;}</style></defs><path class="cls-1" d="M81.45,42.55V98.71a25.34,25.34,0,0,1-25.34,25.34H43.59A25.34,25.34,0,0,1,18.26,98.71V58.63H49.85V17.22h6.26A25.33,25.33,0,0,1,81.45,42.55Z"/><path class="cls-2" d="M19.26,57.63V42.55A24.36,24.36,0,0,1,43.59,18.22h5.26V57.63Z"/><path class="cls-1" d="M47.85,19.22V56.63H20.26V42.55A23.36,23.36,0,0,1,43.59,19.22h4.26m2-2H43.59A25.33,25.33,0,0,0,18.26,42.55V58.63H49.85V17.22Z"/><path class="cls-1" d="M20.79,21.29a1,1,0,0,1-.7-.29L.8,1.71A1,1,0,0,1,.8.29a1,1,0,0,1,1.41,0L21.5,19.58a1,1,0,0,1-.71,1.71Z"/><path class="cls-1" d="M28.1,17.07a1,1,0,0,1-1-1V1.49a1,1,0,1,1,2,0V16.07A1,1,0,0,1,28.1,17.07Z"/><path class="cls-1" d="M15.58,29.07H1a1,1,0,0,1,0-2H15.58a1,1,0,0,1,0,2Z"/></svg>