<?xml version="1.0" encoding="UTF-8"?>
<svg id="Capa_1" data-name="Capa 1" xmlns="http://www.w3.org/2000/svg" viewBox="0 0 63.19 106.83">
  <defs>
    <style>
      .cls-1 {
        fill: #6a6a69;
      }
    </style>
  </defs>
  <path class="cls-1" d="M37.85,2c12.88,.01,23.32,10.45,23.34,23.33v14.08h-27.6V2h4.26M37.85,0h-6.26V41.41h31.6V25.33C63.19,11.34,51.85,0,37.86,0c0,0,0,0-.01,0Z"/>
  <path class="cls-1" d="M63.19,41.41v40.08c0,13.99-11.35,25.34-25.34,25.34h-12.52C11.34,106.82,0,95.48,0,81.49V25.33C0,11.34,11.34,0,25.33,0h0s6.26,0,6.26,0V41.41h31.6Z"/>
</svg>