<svg id="Capa_1" data-name="Capa 1" xmlns="http://www.w3.org/2000/svg" viewBox="0 0 35.26 35.26"><defs><style>.cls-1{fill:#fff;}.cls-2{fill:#6a6a69;}</style></defs><rect class="cls-1" x="1" y="1" width="33.26" height="33.26" rx="8.93"/><path class="cls-2" d="M15.44,23.32a3.91,3.91,0,0,1-1.66-1.26,3.47,3.47,0,0,1-.65-2h3.09a1.48,1.48,0,0,0,.46,1,1.44,1.44,0,0,0,1,.35,1.65,1.65,0,0,0,1-.29,1,1,0,0,0,.37-.83,1,1,0,0,0-.3-.73,2.44,2.44,0,0,0-.73-.48q-.43-.18-1.23-.42a13.57,13.57,0,0,1-1.89-.72,3.37,3.37,0,0,1-1.25-1.05,2.87,2.87,0,0,1-.53-1.82,3.12,3.12,0,0,1,1.21-2.61,4.93,4.93,0,0,1,3.14-.94,5,5,0,0,1,3.18.94A3.38,3.38,0,0,1,22,15.09H18.84a1.25,1.25,0,0,0-.43-.91,1.49,1.49,0,0,0-1-.33,1.23,1.23,0,0,0-.85.28,1,1,0,0,0-.32.81,1,1,0,0,0,.54.9,9.35,9.35,0,0,0,1.7.69,15.22,15.22,0,0,1,1.88.75,3.65,3.65,0,0,1,1.25,1,2.78,2.78,0,0,1,.53,1.75,3.46,3.46,0,0,1-.52,1.85,3.64,3.64,0,0,1-1.51,1.33,5.13,5.13,0,0,1-2.33.49A6.18,6.18,0,0,1,15.44,23.32Z"/></svg>