<?xml version="1.0" encoding="UTF-8"?>
<svg id="Capa_1" data-name="Capa 1" xmlns="http://www.w3.org/2000/svg" viewBox="0 0 33.26 33.26">
  <defs>
    <style>
      .cls-1 {
        fill: #fff;
      }

      .cls-2 {
        fill: #6a6a69;
      }
    </style>
  </defs>
  <rect class="cls-1" width="33.26" height="33.26" rx="8.93" ry="8.93"/>
  <path class="cls-2" d="M14.44,22.32c-.66-.26-1.23-.7-1.66-1.26-.42-.58-.65-1.28-.65-2h3.09c.02,.38,.18,.74,.46,1,.28,.24,.63,.36,1,.35,.36,.01,.71-.09,1-.29,.25-.2,.39-.51,.37-.83,0-.27-.1-.54-.3-.73-.21-.2-.46-.37-.73-.48-.29-.12-.7-.26-1.23-.42-.65-.19-1.28-.43-1.89-.72-.5-.24-.93-.6-1.25-1.05-.38-.53-.56-1.17-.53-1.82-.05-1.02,.41-1.99,1.21-2.61,.91-.66,2.02-.99,3.14-.94,1.14-.06,2.26,.27,3.18,.94,.83,.62,1.33,1.59,1.35,2.63h-3.16c0-.35-.17-.68-.43-.91-.28-.23-.64-.35-1-.33-.31-.02-.61,.08-.85,.28-.22,.21-.34,.51-.32,.81,0,.38,.2,.73,.54,.9,.54,.29,1.11,.52,1.7,.69,.64,.21,1.27,.46,1.88,.75,.49,.24,.91,.58,1.25,1,.37,.51,.56,1.12,.53,1.75,0,.65-.18,1.29-.52,1.85-.37,.58-.89,1.04-1.51,1.33-.73,.34-1.53,.51-2.33,.49-.8,.03-1.59-.1-2.34-.38Z"/>
</svg>