{"asset":{"generator":"Khronos glTF Spline I/O v0.0.1","version":"2.0"},"scenes":[{"nodes":[0]}],"nodes":[{"name":"","children":[1,2,3]},{"name":"Group","matrix":[1,0,0,0,0,1,0,0,0,0,1,0,0,0,0,1],"children":[4,5,6]},{"name":"Directional Light","translation":[200,300,300],"rotation":[-0.4062840720729887,0.12301291902225084,-0.2623788760260691,0.8665785595944042],"extensions":{"KHR_lights_punctual":{"light":0}}},{"name":"Personal Camera","camera":0,"translation":[-567.2580409085741,558.0677563563847,-605.6225675616034],"rotation":[0.10721650302941363,0.8895593882698019,0.2713059702178387,-0.3515420127713853]},{"name":"Ellipse 2","matrix":[-1.1102230246251575e-16,-9.992007221626417e-16,1.000000000000001,0,1.000000000000001,-1.3322676295501892e-15,-8.32667268468867e-16,0,1.665334536937734e-16,1.000000000000001,-7.888609052210118e-31,0,0,0,0,1],"mesh":0},{"name":"Ellipse","matrix":[-2.220446049250315e-16,-6.106226635438362e-16,1.0000000000000007,0,1.0000000000000007,-8.881784197001256e-16,-4.440892098500624e-16,0,-2.627434620609032e-46,1.0000000000000007,-1.1102230246251595e-16,0,0,0,0,1],"mesh":1},{"name":"Boolean","matrix":[1,0,0,0,0,1,0,0,0,0,1,0,0,0,0,1],"mesh":2}],"cameras":[{"type":"orthographic","orthographic":{"xmag":1455,"ymag":692,"zfar":100000,"znear":-100000}}],"meshes":[{"primitives":[{"attributes":{"POSITION":1,"NORMAL":2,"TEXCOORD_0":3},"indices":0}]},{"primitives":[{"attributes":{"POSITION":5,"NORMAL":6,"TEXCOORD_0":7},"indices":4}]},{"primitives":[{"attributes":{"POSITION":9,"NORMAL":10,"FACEMAP":11,"COLOR":12},"indices":8}]}],"buffers":[{"uri":"data:application/octet-stream;base64,","byteLength":5632},{"uri":"data:application/octet-stream;base64,","byteLength":5632},{"uri":"data:application/octet-stream;base64,","byteLength":7792}],"bufferViews":[{"buffer":0,"byteOffset":0,"byteLength":1536,"target":34963},{"buffer":0,"byteOffset":1536,"byteLength":1536,"target":34962},{"buffer":0,"byteOffset":3072,"byteLength":1536,"target":34962},{"buffer":0,"byteOffset":4608,"byteLength":1024,"target":34962},{"buffer":1,"byteOffset":0,"byteLength":1536,"target":34963},{"buffer":1,"byteOffset":1536,"byteLength":1536,"target":34962},{"buffer":1,"byteOffset":3072,"byteLength":1536,"target":34962},{"buffer":1,"byteOffset":4608,"byteLength":1024,"target":34962},{"buffer":2,"byteOffset":0,"byteLength":1128,"target":34963},{"buffer":2,"byteOffset":1128,"byteLength":1920,"target":34962},{"buffer":2,"byteOffset":3048,"byteLength":1920,"target":34962},{"buffer":2,"byteOffset":4968,"byteLength":264,"target":34962},{"buffer":2,"byteOffset":5232,"byteLength":2560,"target":34962}],"accessors":[{"bufferView":0,"byteOffset":0,"componentType":5125,"count":384,"type":"SCALAR","min":[0],"max":[127]},{"bufferView":1,"byteOffset":0,"componentType":5126,"count":128,"type":"VEC3","min":[-228.5,-228.5,0],"max":[228.5,228.5,0]},{"bufferView":2,"byteOffset":0,"componentType":5126,"count":128,"type":"VEC3","min":[0,0,1],"max":[0,0,1]},{"bufferView":3,"byteOffset":0,"componentType":5126,"count":128,"type":"VEC2","min":[0,0],"max":[1,1]},{"bufferView":4,"byteOffset":0,"componentType":5125,"count":384,"type":"SCALAR","min":[0],"max":[127]},{"bufferView":5,"byteOffset":0,"componentType":5126,"count":128,"type":"VEC3","min":[-228.5,-228.5,0],"max":[228.5,228.5,0]},{"bufferView":6,"byteOffset":0,"componentType":5126,"count":128,"type":"VEC3","min":[0,0,1],"max":[0,0,1]},{"bufferView":7,"byteOffset":0,"componentType":5126,"count":128,"type":"VEC2","min":[0,0],"max":[1,1]},{"bufferView":8,"byteOffset":0,"componentType":5125,"count":282,"type":"SCALAR","min":[0],"max":[159]},{"bufferView":9,"byteOffset":0,"componentType":5126,"count":160,"type":"VEC3","min":[-226.61924743652344,-2.045513416851566e-13,-226.61924743652344],"max":[226.61924743652344,2.045513416851566e-13,226.61924743652344]},{"bufferView":10,"byteOffset":0,"componentType":5126,"count":160,"type":"VEC3","min":[4.440686163615325e-16,0.9999999403953552,7.771275298756397e-16],"max":[4.443091737185527e-16,1,7.771955042696569e-16]},{"bufferView":11,"byteOffset":0,"componentType":5125,"count":66,"type":"SCALAR","min":[0],"max":[93]},{"bufferView":12,"byteOffset":0,"componentType":5126,"count":160,"type":"VEC4","min":[0,0,0,0],"max":[0,0,0,0]}],"extensions":{"KHR_lights_punctual":{"lights":[{"type":"directional","name":"Directional Light","color":[1,1,1],"intensity":0.7}]}},"extensionsUsed":["KHR_lights_punctual"]}