<svg id="Capa_1" data-name="Capa 1" xmlns="http://www.w3.org/2000/svg" viewBox="0 0 43.74 39.78"><defs><style>.cls-1{fill:#fff;}</style></defs><path class="cls-1" d="M43.52,25.83A23.19,23.19,0,0,0,40.75,22,24.71,24.71,0,0,0,18.5,13.65,23.87,23.87,0,0,0,8.34,17.38,25.11,25.11,0,0,0,0,26.21V27H0a23.78,23.78,0,0,0,6.5,7.53,24.43,24.43,0,0,0,21.07,4.56A24.46,24.46,0,0,0,43.52,27.32,1.36,1.36,0,0,0,43.52,25.83ZM8.18,32.52A22.24,22.24,0,0,1,3,26.86c-.1-.15-.2-.27-.06-.48a22.8,22.8,0,0,1,8.37-7.75C7.82,24,7.82,29.2,11.28,34.51A20.06,20.06,0,0,1,8.18,32.52Zm13.64,4.64A10.58,10.58,0,1,1,32.45,26.79,10.54,10.54,0,0,1,21.82,37.16ZM40.74,26.92a22.68,22.68,0,0,1-7.88,7.39l-.27.14H32.5c3.42-5.27,3.41-10.5,0-15.74.13,0,.22.07.32.13a22.62,22.62,0,0,1,7.93,7.41A.53.53,0,0,1,40.74,26.92Z"/><path class="cls-1" d="M6.29,11.92a1.31,1.31,0,0,1-1.9-.08L.89,8.34A1.26,1.26,0,0,1,.58,6.9a1.3,1.3,0,0,1,1.35-.79,1.21,1.21,0,0,1,.8.41L6.23,10A1.3,1.3,0,0,1,6.29,11.92Z"/><path class="cls-1" d="M43,8.12a3.47,3.47,0,0,1-.25.29l-3.41,3.4a1.41,1.41,0,0,1-1,.48,1.24,1.24,0,0,1-1.16-.73,1.18,1.18,0,0,1,.18-1.39c1.24-1.27,2.49-2.52,3.77-3.76a1.25,1.25,0,0,1,1.67,0A1.29,1.29,0,0,1,43,8.12Z"/><path class="cls-1" d="M23.15,1.37v5a1.28,1.28,0,1,1-2.56,0v-5a1.28,1.28,0,1,1,2.56,0Z"/><path class="cls-1" d="M21.86,20.25a6.33,6.33,0,1,0,6.33,6.39A6.36,6.36,0,0,0,21.86,20.25Zm0,10.06a3.73,3.73,0,1,1,3.74-3.72A3.75,3.75,0,0,1,21.87,30.31Z"/></svg>