<svg id="Capa_1" data-name="Capa 1" xmlns="http://www.w3.org/2000/svg" viewBox="0 0 79.01 79.06"><defs><style>.cls-1{fill:#fff;}.cls-2{fill:#6a6a69;}</style></defs><path class="cls-1" d="M0,39.49A39.51,39.51,0,1,1,39.59,79.06,39.58,39.58,0,0,1,0,39.49Z"/><path class="cls-2" d="M17.64,43.25A25.09,25.09,0,0,1,26,34.42a23.86,23.86,0,0,1,10.17-3.73A24.73,24.73,0,0,1,58.39,39a23.13,23.13,0,0,1,2.76,3.83,1.36,1.36,0,0,1,0,1.49A24.5,24.5,0,0,1,45.24,56.11a24.41,24.41,0,0,1-21.06-4.56A23.66,23.66,0,0,1,17.68,44h0Z"/><path class="cls-2" d="M19.57,23.15a1.21,1.21,0,0,1,.79.41l3.5,3.5A1.3,1.3,0,1,1,22,28.88l-3.49-3.5a1.24,1.24,0,0,1-.31-1.44A1.29,1.29,0,0,1,19.57,23.15Z"/><path class="cls-2" d="M56,29.33a1.23,1.23,0,0,1-1.15-.73A1.16,1.16,0,0,1,55,27.21c1.24-1.27,2.49-2.52,3.77-3.76a1.25,1.25,0,0,1,1.67,0,1.29,1.29,0,0,1,.21,1.7,2.26,2.26,0,0,1-.25.29L57,28.85A1.39,1.39,0,0,1,56,29.33Z"/><path class="cls-2" d="M38.22,20.91V18.39a1.28,1.28,0,1,1,2.56,0c0,1.66,0,3.32,0,5a1.26,1.26,0,0,1-1.28,1.33,1.28,1.28,0,0,1-1.28-1.35Z"/><path class="cls-1" d="M39.53,33A10.58,10.58,0,1,1,28.92,43.39,10.54,10.54,0,0,1,39.53,33Z"/><path class="cls-1" d="M50.13,51.49c3.43-5.27,3.42-10.5,0-15.74.13,0,.22.07.32.13a22.62,22.62,0,0,1,7.93,7.41.5.5,0,0,1,0,.67,22.68,22.68,0,0,1-7.88,7.39l-.26.14Z"/><path class="cls-1" d="M28.92,51.55a19.7,19.7,0,0,1-3.11-2,22.24,22.24,0,0,1-5.2-5.66c-.1-.15-.2-.27-.06-.48a22.88,22.88,0,0,1,8.37-7.75C25.46,41,25.46,46.24,28.92,51.55Z"/><path class="cls-2" d="M39.5,49.94a6.33,6.33,0,1,1,6.32-6.26A6.33,6.33,0,0,1,39.5,49.94Z"/><path class="cls-1" d="M39.51,39.9a3.73,3.73,0,1,1-3.75,3.72A3.74,3.74,0,0,1,39.51,39.9Z"/></svg>