<?xml version="1.0" encoding="UTF-8"?>
<svg id="Capa_1" data-name="Capa 1" xmlns="http://www.w3.org/2000/svg" viewBox="0 0 43.74 39.72">
  <defs>
    <style>
      .cls-1 {
        fill: #fff;
      }
    </style>
  </defs>
  <path class="cls-1" d="M43.52,25.74c-.79-1.37-1.72-2.65-2.77-3.83-5.5-6.4-13.89-9.55-22.25-8.35-3.63,.45-7.1,1.73-10.16,3.73-3.46,2.22-6.32,5.25-8.34,8.83v.79H0c1.61,2.94,3.83,5.51,6.5,7.53,5.94,4.7,13.72,6.39,21.07,4.56,6.74-1.5,12.53-5.77,15.95-11.77,.3-.45,.3-1.04,0-1.49Zm-35.34,6.69c-2.04-1.57-3.79-3.49-5.18-5.66-.1-.15-.2-.27-.06-.48,2.09-3.25,4.97-5.92,8.37-7.75-3.49,5.37-3.49,10.57-.03,15.88-1.09-.57-2.13-1.23-3.1-1.99Zm13.64,4.64c-5.84-.03-10.56-4.79-10.53-10.63s4.79-10.56,10.63-10.53c5.84,.03,10.56,4.79,10.53,10.63,0,.05,0,.11,0,.16-.09,5.79-4.84,10.42-10.63,10.37Zm18.92-10.24c-1.99,3.06-4.7,5.6-7.88,7.39l-.27,.14h-.09c3.42-5.27,3.41-10.5,0-15.74,.13,0,.22,.07,.32,.13,3.21,1.79,5.93,4.33,7.93,7.41,.16,.2,.15,.48,0,.67Z"/>
  <path class="cls-1" d="M6.29,11.83c-.52,.5-1.35,.49-1.85-.03-.02-.02-.03-.03-.05-.05L.89,8.25c-.4-.36-.53-.94-.31-1.44,.22-.53,.77-.86,1.35-.79,.31,.03,.6,.18,.8,.41l3.5,3.48c.55,.47,.61,1.29,.14,1.83-.03,.03-.05,.06-.08,.09Z"/>
  <path class="cls-1" d="M43,8.03c-.08,.1-.16,.2-.25,.29l-3.41,3.4c-.25,.29-.62,.46-1,.48-.5,.01-.96-.28-1.16-.73-.25-.45-.18-1.02,.18-1.39,1.24-1.27,2.49-2.52,3.77-3.76,.48-.43,1.19-.43,1.67,0,.49,.44,.58,1.17,.2,1.71Z"/>
  <path class="cls-1" d="M23.15,1.28V6.28c0,.71-.57,1.28-1.28,1.28-.71,0-1.28-.57-1.28-1.28h0V1.28C20.59,.57,21.16,0,21.87,0s1.28,.57,1.28,1.28h0Z"/>
  <path class="cls-1" d="M21.86,20.16c-3.5,0-6.33,2.83-6.33,6.33,0,3.5,2.83,6.33,6.33,6.33,3.47,0,6.3-2.8,6.33-6.27,.02-3.51-2.82-6.37-6.33-6.39h0Zm0,10.06c-2.06,0-3.73-1.68-3.72-3.74,0-2.06,1.68-3.73,3.74-3.72,2.06,0,3.73,1.68,3.72,3.74-.02,2.05-1.68,3.71-3.73,3.72h-.01Z"/>
</svg>