<?xml version="1.0" encoding="UTF-8"?>
<svg id="pointer" data-name="Layer 1" xmlns="http://www.w3.org/2000/svg" viewBox="0 0 60.94 91.25">
  <defs>
    <style>
    		.bar {
										fill: #6a6a6a;
									}

									.hand {
										fill: #fff;
									}
    </style>
  </defs>
  <path class="cls-1" d="M23.81,12.05c-6.43,.36-11.76,5.49-12.35,11.91-.12,1.3-.05,2.56,.19,3.77s1.51,1.93,2.66,1.45h0c.84-.35,1.33-1.25,1.15-2.14-.12-.59-.18-1.2-.18-1.83,0-5.13,4.17-9.3,9.3-9.3s9.3,4.16,9.3,9.3c0,.59-.06,1.17-.16,1.74-.17,.9,.32,1.79,1.17,2.14h0c1.11,.46,2.4-.2,2.62-1.38,.16-.81,.24-1.65,.24-2.5,0-7.51-6.32-13.57-13.92-13.14Z"/>
  <path class="cls-1" d="M22.98,.37C11.15,1.12,1.38,10.43,.14,22.22c-.38,3.57,.02,7.02,1.04,10.19,.34,1.07,1.55,1.59,2.58,1.16h0c.94-.39,1.39-1.44,1.08-2.41-.84-2.63-1.17-5.48-.86-8.45C4.98,13.07,12.74,5.3,22.38,4.31c12.38-1.27,22.87,8.45,22.87,20.58,0,2.12-.32,4.16-.92,6.09-.3,.97,.17,2.01,1.11,2.39h0c1.03,.42,2.23-.11,2.56-1.18,.72-2.31,1.11-4.76,1.11-7.31C49.12,10.81,37.24-.52,22.98,.37Z"/>
  <path class="cls-2" d="M60.91,64.87c0,4.34,.09,8.69-.02,13.02-.18,7.34-5.84,13.07-13.17,13.28-4.98,.14-9.96,.07-14.94,0-4.03-.06-7.54-1.52-10.11-4.66-4.2-5.15-8.53-10.25-8.28-17.57,.12-3.41,1.14-6.35,3.81-8.41,1.85-1.43,2.39-3.05,2.37-5.25-.08-8.81,0-17.62-.04-26.43-.01-3.03,.67-5.55,4.29-5.44,3.38,.1,3.95,2.6,3.94,5.42-.03,7.41-.04,14.81,.02,22.22,0,1.15-.57,3.07,1.18,3.13,1.79,.06,1.22-1.86,1.29-3.01,.1-1.65,0-3.32,.06-4.98,.09-2.67,1.29-4.48,4.15-4.43,2.89,.05,3.93,1.97,4,4.6,.04,1.79,.02,3.58,.09,5.36,.03,.78,.25,1.64,1.25,1.59,.97-.04,1.13-.9,1.17-1.68,.06-1.27,.04-2.55,.07-3.83,.06-2.66,1.16-4.5,4.05-4.53,2.89-.03,4.06,1.73,4.11,4.43,.03,1.53,0,3.07,.06,4.6,.03,.89,.05,1.98,1.21,2.07,1.3,.1,1.19-1.06,1.26-1.92,.06-.76,0-1.54,.08-2.3,.24-2.37,1.49-3.78,3.94-3.82,2.65-.05,4.08,1.43,4.13,4,.09,4.85,.03,9.7,.03,14.56,0,0,.02,0,.02,0Z"/>
</svg>