<svg id="Capa_1" data-name="Capa 1" xmlns="http://www.w3.org/2000/svg" viewBox="0 0 42.32 55.54"><defs><style>.cls-1{fill:#fff;}</style></defs><path class="cls-1" d="M24.27,55.54a19.29,19.29,0,0,1-4.79-1.29,16,16,0,0,1-7-5.67C8.6,43,4.78,37.34.9,31.75A4.61,4.61,0,0,1,2.5,24.9a4.66,4.66,0,0,1,5.87,1.63c1.3,1.83,2.57,3.67,3.87,5.49.16.24.27.62.68.47s.37-.49.37-.82V4.86A4.54,4.54,0,0,1,15.82.48a4.44,4.44,0,0,1,6.42,3.58c.22,2.91.05,5.84.09,8.76,0,.92,0,.92.87.67a4.46,4.46,0,0,1,5.23,2.26c.23.42.41.4.79.22a4.5,4.5,0,0,1,6.3,3.17c.09.4-.08,1,.21,1.18s.74-.18,1.14-.26a4.51,4.51,0,0,1,5.4,4.41c0,5.13.11,10.26,0,15.38A16.16,16.16,0,0,1,29.17,55.3c-.44.09-.89.16-1.33.24Z"/></svg>