<?xml version="1.0" encoding="UTF-8"?>
<svg id="Layer_1" data-name="Layer 1" xmlns="http://www.w3.org/2000/svg" viewBox="0 0 46.57 67.85">
  <defs>
    <style>
      .cls-1 {
        fill: #fff;
      }
    </style>
  </defs>
  <path class="cls-1" d="M46.53,41.47c0,4.34,.09,8.69-.02,13.02-.18,7.34-5.84,13.07-13.17,13.28-4.98,.14-9.96,.07-14.94,0-4.03-.06-7.54-1.52-10.11-4.66C4.08,57.96-.24,52.86,.01,45.54c.12-3.41,1.14-6.35,3.81-8.41,1.85-1.43,2.39-3.05,2.37-5.25-.08-8.81,0-17.62-.04-26.43C6.13,2.41,6.82-.11,10.43,0c3.38,.1,3.95,2.6,3.94,5.42-.03,7.41-.04,14.81,.02,22.22,0,1.15-.57,3.07,1.18,3.13,1.79,.06,1.22-1.86,1.29-3.01,.1-1.65,0-3.32,.06-4.98,.09-2.67,1.29-4.48,4.15-4.43,2.89,.05,3.93,1.97,4,4.6,.04,1.79,.02,3.58,.09,5.36,.03,.78,.25,1.64,1.25,1.59,.97-.04,1.13-.9,1.17-1.68,.06-1.27,.04-2.55,.07-3.83,.06-2.66,1.16-4.5,4.05-4.53,2.89-.03,4.06,1.73,4.11,4.43,.03,1.53,0,3.07,.06,4.6,.03,.89,.05,1.98,1.21,2.07,1.3,.1,1.19-1.06,1.26-1.92,.06-.76,0-1.54,.08-2.3,.24-2.37,1.49-3.78,3.94-3.82,2.65-.05,4.08,1.43,4.13,4,.09,4.85,.03,9.7,.03,14.56h0Z"/>
</svg>