<?xml version="1.0" encoding="UTF-8"?>
<svg id="Capa_1" data-name="Capa 1" xmlns="http://www.w3.org/2000/svg" viewBox="0 0 63.19 106.83">
  <defs>
    <style>
      .cls-1 {
        fill: #fff;
      }

      .cls-2 {
        fill: #6a6a69;
      }
    </style>
  </defs>
  <path class="cls-1" d="M37.85,0h-12.52C11.34,0,0,11.34,0,25.33H0v56.16c0,13.99,11.34,25.33,25.33,25.34h12.52c13.99,0,25.34-11.35,25.34-25.34h0V25.33C63.19,11.34,51.85,0,37.86,0c0,0,0,0-.01,0Zm23.34,39.41h-27.6V2h4.26c12.88,.01,23.32,10.45,23.34,23.33v14.08Z"/>
  <path class="cls-2" d="M61.19,25.33v14.08h-27.6V2h4.26c12.88,.01,23.32,10.45,23.34,23.33Z"/>
</svg>