<svg id="Capa_1" data-name="Capa 1" xmlns="http://www.w3.org/2000/svg" viewBox="0 0 79.01 79.06"><defs><style>.cls-1{fill:#fff;}.cls-2{fill:#6a6a69;}</style></defs><path class="cls-1" d="M0,39.49A39.51,39.51,0,1,1,39.59,79.06,39.58,39.58,0,0,1,0,39.49Z"/><path class="cls-2" d="M45.33,36.49c-2.83,5.6-1.44,9.67,2.22,13.43s5,9.15,7.21,13.91c1,2.2.42,4-1.67,5-2.33,1.08-4.08-.34-4.6-2.36-2-7.76-7.59-12.44-13.65-16.78-2.93-2.11-3.66-4.9-3-8.23.42-2.09,1-4.14.6-6.59-3.71.49-4.34,4.08-6.34,6.14-1.53,1.57-2.79,3.66-5.21,1.66-2.12-1.75-.53-3.37.34-5.18C24.88,29.85,32.14,28,39.19,25.91c2.64-.8,4.83.45,6.55,2.43,3.48,4,7.13,7.68,12.53,9.06,1.88.47,3.46,1.72,2.69,3.93-.85,2.42-2.75,2.44-4.85,1.49C52.41,41.14,48.13,40.57,45.33,36.49Z"/><path class="cls-2" d="M43.93,21.78c-3.83-.38-6.24-2.19-6.29-5.88S39.82,10,43.48,10c3.42,0,5.58,2.1,5.8,5.48C49.52,19.19,47.14,21,43.93,21.78Z"/><path class="cls-2" d="M33,53.23c1.7,2,5.62,2.75,4.53,5.23C35.85,62.35,33.89,66.54,30,69c-1.22.75-2.52-.11-3.42-1.18a3.16,3.16,0,0,1-.14-4.06C28.48,60.4,30.57,57.1,33,53.23Z"/></svg>