<?xml version="1.0" encoding="UTF-8"?>
<svg id="Capa_1" data-name="Capa 1" xmlns="http://www.w3.org/2000/svg" viewBox="0 0 41.31 59.29">
  <defs>
    <style>
      .cls-1 {
        fill: #fff;
      }
    </style>
  </defs>
  <path class="cls-1" d="M25.48,26.51c-2.83,5.61-1.48,9.68,2.22,13.49s5,9.15,7.21,13.91c1,2.2,.41,4-1.68,5-2.32,1.08-4.08-.35-4.59-2.36-1.98-7.86-7.64-12.55-13.64-16.88-2.93-2.11-3.66-4.9-3-8.24,.42-2.08,1-4.14,.6-6.59-3.71,.49-4.34,4.09-6.34,6.15-1.53,1.57-2.78,3.65-5.21,1.65-2.12-1.74-.52-3.36,.34-5.18,3.61-7.59,10.89-9.4,17.94-11.53,2.65-.79,4.83,.46,6.56,2.43,3.48,4,7.12,7.69,12.53,9.06,1.88,.48,3.46,1.73,2.68,3.94-.84,2.41-2.75,2.44-4.85,1.49-3.7-1.68-7.98-2.25-10.77-6.34Z"/>
  <path class="cls-1" d="M24.08,11.81c-3.84-.38-6.24-2.19-6.29-5.88S20,0,23.62,0c3.43,0,5.59,2.1,5.8,5.48,.25,3.73-2.14,5.58-5.34,6.33Z"/>
  <path class="cls-1" d="M13.17,43.26c1.69,2,5.62,2.74,4.53,5.23-1.7,3.89-3.7,8.07-7.59,10.51-1.22,.76-2.53-.1-3.43-1.17-1.02-1.15-1.07-2.85-.14-4.07l6.63-10.5Z"/>
</svg>