<svg id="Capa_1" data-name="Capa 1" xmlns="http://www.w3.org/2000/svg" viewBox="0 0 41.3 59.26"><defs><style>.cls-1{fill:#fff;}</style></defs><path class="cls-1" d="M25.48,26.51C22.65,32.12,24,36.19,27.7,40s5,9.15,7.21,13.91c1,2.2.41,4-1.68,5-2.32,1.08-4.08-.35-4.59-2.36C26.66,48.69,21,44,15,39.67c-2.93-2.11-3.66-4.9-3-8.24.42-2.08,1-4.14.6-6.59-3.71.49-4.34,4.09-6.34,6.15-1.53,1.57-2.78,3.65-5.21,1.65-2.12-1.74-.52-3.36.34-5.18C5,19.87,12.28,18.06,19.33,15.93c2.65-.79,4.83.46,6.56,2.43,3.48,4,7.12,7.69,12.53,9.06,1.88.48,3.46,1.73,2.68,3.94-.84,2.41-2.75,2.44-4.85,1.49C32.55,31.17,28.27,30.6,25.48,26.51Z"/><path class="cls-1" d="M24.08,11.81c-3.84-.38-6.24-2.19-6.29-5.88S20,0,23.62,0c3.43,0,5.59,2.1,5.8,5.48C29.67,9.21,27.28,11.06,24.08,11.81Z"/><path class="cls-1" d="M13.17,43.26c1.69,2,5.62,2.74,4.53,5.23C16,52.38,14,56.56,10.11,59c-1.22.76-2.53-.1-3.43-1.17a3.2,3.2,0,0,1-.14-4.07Z"/></svg>